<svg width="356" height="81" viewBox="0 0 356 81" fill="none" xmlns="http://www.w3.org/2000/svg">
<path d="M33.1375 53.44C32.9242 53.44 32.8175 53.3333 32.8175 53.12C32.8175 52.9067 32.9775 52.5333 33.2975 52C33.7242 51.1467 33.9375 50.48 33.9375 50C33.9375 49.2 33.4842 48.64 32.5775 48.32C31.6708 48 30.4175 47.84 28.8175 47.84C28.0175 47.84 27.1108 47.8933 26.0975 48C25.1375 48.0533 24.0708 48.1333 22.8975 48.24C21.4042 48.4 19.6975 48.6667 17.7775 49.04C15.8575 49.4133 13.9642 49.84 12.0975 50.32C10.2842 50.7467 8.7375 51.2 7.4575 51.68C8.0975 51.52 8.95083 51.3067 10.0175 51.04C11.0842 50.7733 12.1508 50.5067 13.2175 50.24C14.3375 49.9733 15.2175 49.7867 15.8575 49.68C16.1242 49.6267 16.3375 49.6 16.4975 49.6C16.7108 49.6 16.7642 49.6267 16.6575 49.68C16.1242 49.7867 15.2442 50 14.0175 50.32C12.7908 50.64 11.5108 50.9867 10.1775 51.36C8.84417 51.68 7.67083 51.9733 6.6575 52.24C5.6975 52.5067 5.16417 52.6667 5.0575 52.72C4.84417 52.7733 4.6575 52.8 4.4975 52.8C4.3375 52.8533 4.20417 52.88 4.0975 52.88C3.35083 52.88 2.79083 52.5867 2.4175 52C2.0975 51.4667 1.80417 51.04 1.5375 50.72C1.2175 50.4 1.11083 49.9467 1.2175 49.36C1.00417 49.36 0.844167 49.3867 0.7375 49.44C0.7375 49.2267 0.710834 48.9867 0.6575 48.72C0.6575 48.4533 0.6575 48.2133 0.6575 48C0.6575 47.52 0.7375 47.2267 0.8975 47.12C2.0175 45.36 3.2175 43.6533 4.4975 42C5.7775 40.3467 7.11083 38.6133 8.4975 36.8C12.4442 31.7333 16.6575 26.4 21.1375 20.8C25.6708 15.2 29.9908 9.81333 34.0975 4.64C34.0442 4.37333 33.9642 4.05333 33.8575 3.68C33.7508 3.25333 33.6975 2.85333 33.6975 2.48C33.6975 1.94667 33.8308 1.49333 34.0975 1.12C34.3642 0.746665 34.8442 0.559999 35.5375 0.559999C36.1242 0.559999 36.7375 0.666665 37.3775 0.879995C38.0175 1.14666 38.7642 1.57333 39.6175 2.16C40.4708 2.74666 41.2175 3.36 41.8575 4C42.5508 4.64 42.8975 5.25333 42.8975 5.84C42.8975 6.69333 42.1508 7.89333 40.6575 9.44C39.2175 10.9333 37.4575 12.7733 35.3775 14.96C34.0975 16.2933 32.6308 17.92 30.9775 19.84C29.3242 21.7067 27.6708 23.6 26.0175 25.52C24.4175 27.44 23.0042 29.12 21.7775 30.56C20.6042 31.9467 19.8575 32.8267 19.5375 33.2C19.5908 32.9867 19.9108 32.5067 20.4975 31.76C21.1375 30.96 21.8575 30.08 22.6575 29.12C23.5108 28.1067 24.2575 27.2267 24.8975 26.48C25.1642 26.2133 25.5642 25.7333 26.0975 25.04C26.6308 24.3467 27.1908 23.6 27.7775 22.8C28.3642 21.9467 28.8708 21.2267 29.2975 20.64C29.7242 20 29.9375 19.6267 29.9375 19.52C29.9375 19.52 29.8842 19.5467 29.7775 19.6C29.7242 19.6533 29.5908 19.8133 29.3775 20.08C29.1108 20.3467 28.5508 21.0133 27.6975 22.08C26.8975 23.1467 25.9642 24.3467 24.8975 25.68C23.8842 27.0133 22.8975 28.2933 21.9375 29.52C21.0308 30.6933 20.3108 31.5733 19.7775 32.16C17.5908 34.5067 15.5642 36.7733 13.6975 38.96C11.8308 41.0933 10.2842 43.0133 9.0575 44.72C9.11083 44.72 9.16417 44.72 9.2175 44.72C9.27083 44.6667 9.32417 44.64 9.3775 44.64C9.8575 44.4267 10.7375 44.1867 12.0175 43.92C13.2975 43.6533 14.7908 43.3867 16.4975 43.12C18.2042 42.8533 19.9108 42.6133 21.6175 42.4C23.3242 42.1867 24.8442 42.0267 26.1775 41.92C27.5642 41.76 28.5508 41.68 29.1375 41.68C29.9375 41.68 30.8708 41.76 31.9375 41.92C33.0042 42.0267 34.0175 42.2133 34.9775 42.48C35.9908 42.6933 36.7108 43.0133 37.1375 43.44C36.1775 43.0133 35.1375 42.6933 34.0175 42.48C32.9508 42.2667 31.8042 42.1333 30.5775 42.08C32.4442 42.24 34.2308 42.64 35.9375 43.28C37.0575 43.6533 37.8308 44.1333 38.2575 44.72C38.7375 45.3067 38.9775 45.92 38.9775 46.56C38.9775 47.4133 38.6575 48.32 38.0175 49.28C37.4308 50.1867 36.7108 51.04 35.8575 51.84C35.6442 52.0533 35.2175 52.3733 34.5775 52.8C33.9375 53.2267 33.4575 53.44 33.1375 53.44ZM10.1775 44.48C10.9775 44.32 12.0175 44.16 13.2975 44C14.5775 43.7867 15.8575 43.5733 17.1375 43.36C18.4708 43.1467 19.5375 42.96 20.3375 42.8C21.5642 42.5333 23.0842 42.32 24.8975 42.16C26.7108 42 28.5508 41.9733 30.4175 42.08C30.0975 42.0267 29.7775 42 29.4575 42C29.1375 42 28.7908 42 28.4175 42C26.4975 42 24.2042 42.16 21.5375 42.48C21.0042 42.5333 20.0442 42.6933 18.6575 42.96C17.2708 43.1733 15.7775 43.4133 14.1775 43.68C12.6308 43.9467 11.2975 44.2133 10.1775 44.48ZM50.1731 52.64C49.4265 52.64 48.6265 52.48 47.7731 52.16C46.9731 51.8933 46.2531 51.4667 45.6131 50.88C44.9731 50.2933 44.2798 49.4133 43.5331 48.24C42.8398 47.0133 42.4931 45.8133 42.4931 44.64C42.4931 44.16 42.5731 43.7333 42.7331 43.36C44.4398 38.7733 47.2131 34.5867 51.0531 30.8C54.8931 26.96 59.5865 23.7333 65.1331 21.12C65.8798 21.12 66.6531 21.4133 67.4531 22C68.2531 22.5333 68.9198 23.2 69.4531 24L70.8931 24.48C70.8398 23.8933 70.6531 23.5467 70.3331 23.44C70.0131 23.28 69.8531 23.0667 69.8531 22.8C69.9598 22.32 70.3065 22.0533 70.8931 22C71.4798 21.8933 71.9065 21.84 72.1731 21.84C73.0265 21.84 73.7198 22.24 74.2531 23.04C74.8398 23.7867 75.1598 24.6133 75.2131 25.52C76.4931 25.68 77.8265 25.7867 79.2131 25.84C80.5998 25.8933 81.7998 25.9467 82.8131 26C83.8798 26 84.4665 26 84.5731 26H84.8131C84.9731 26 85.0531 26.1067 85.0531 26.32C85.0531 26.6933 84.8398 27.0133 84.4131 27.28C83.8798 27.7067 82.6265 28 80.6531 28.16C78.7331 28.2667 76.7065 28.32 74.5731 28.32C74.3065 29.12 73.9065 29.9733 73.3731 30.88C72.8398 31.7867 72.2265 32.72 71.5331 33.68C71.0531 34.3733 70.3331 35.3067 69.3731 36.48C68.4131 37.6 67.4265 38.7467 66.4131 39.92C65.3998 41.0933 64.5465 42.08 63.8531 42.88C64.3331 42.4533 65.1065 41.7067 66.1731 40.64C67.2931 39.52 68.1998 38.5333 68.8931 37.68C69.1598 37.36 69.5598 36.8533 70.0931 36.16C70.6265 35.4133 71.1331 34.72 71.6131 34.08C72.1465 33.3867 72.4665 32.9333 72.5731 32.72C71.8798 34.16 70.9998 35.5467 69.9331 36.88C68.8665 38.2133 67.7998 39.4133 66.7331 40.48C65.6665 41.5467 64.7598 42.4267 64.0131 43.12C63.2665 43.76 62.8398 44.1333 62.7331 44.24C60.4931 46.5867 58.2265 48.5867 55.9331 50.24C53.6931 51.84 51.7731 52.64 50.1731 52.64ZM47.6131 49.92C47.8798 49.92 48.1998 49.84 48.5731 49.68C49.1598 49.36 49.9065 48.8533 50.8131 48.16C51.7731 47.4667 52.7598 46.7467 53.7731 46C54.6798 45.2533 55.6931 44.3467 56.8131 43.28C57.9331 42.16 59.1598 40.8533 60.4931 39.36C61.6665 38.0267 62.9198 36.5867 64.2531 35.04C65.5865 33.44 66.8931 31.7867 68.1731 30.08L66.9731 31.2C67.3465 30.8267 67.7998 30.32 68.3331 29.68C68.9198 28.9867 69.3998 28.4533 69.7731 28.08C68.1198 27.9733 67.1331 27.8933 66.8131 27.84C66.7598 27.9467 66.6798 28 66.5731 28C66.4665 28 66.4131 27.8133 66.4131 27.44C66.4131 27.3333 66.4131 27.2 66.4131 27.04C66.4131 26.8267 66.4398 26.6133 66.4931 26.4C65.9598 26.3467 65.3731 26.4267 64.7331 26.64C64.0931 26.8533 63.3731 27.3067 62.5731 28C61.6665 28.8533 60.4931 29.92 59.0531 31.2C57.6131 32.48 56.1198 33.9467 54.5731 35.6C53.0265 37.2 51.5598 38.9333 50.1731 40.8C48.8398 42.6667 47.7731 44.64 46.9731 46.72C46.7065 47.36 46.5731 48 46.5731 48.64C46.5731 49.5467 46.9731 49.8133 47.7731 49.44C47.5065 49.6 47.3731 49.7067 47.3731 49.76C47.3731 49.8667 47.4531 49.92 47.6131 49.92ZM47.7731 49.44C48.7865 48.9067 50.3865 47.7867 52.5731 46.08C54.8131 44.32 57.0798 42.1867 59.3731 39.68C60.1198 38.88 60.9731 37.9733 61.9331 36.96C62.8931 35.8933 63.8265 34.88 64.7331 33.92C65.6398 32.96 66.3331 32.2133 66.8131 31.68C65.5865 33.1733 64.4398 34.5333 63.3731 35.76C62.3598 36.9333 61.3731 38.0533 60.4131 39.12C58.1731 41.52 55.8798 43.68 53.5331 45.6C51.2398 47.52 49.3198 48.8 47.7731 49.44ZM86.4313 54.8C85.4179 54.8 84.1379 54.4267 82.5912 53.68C81.0446 52.9333 79.5779 52.0267 78.1913 50.96C76.8579 49.8933 75.9246 48.9333 75.3913 48.08C74.7513 46.96 74.4313 46.0267 74.4313 45.28C74.4313 44.8533 74.5646 44.64 74.8313 44.64C75.3113 44.64 76.0046 45.2 76.9113 46.32C77.2846 46.8 77.9779 47.28 78.9913 47.76C80.0579 48.1867 81.2313 48.56 82.5113 48.88C83.8446 49.2 85.0713 49.36 86.1913 49.36C86.4579 49.36 86.6713 49.36 86.8313 49.36C87.0446 49.36 87.2579 49.3333 87.4713 49.28C87.4179 48.0533 86.8846 46.8 85.8713 45.52C84.8579 44.1867 83.6846 42.8 82.3513 41.36C81.0713 39.92 79.9513 38.4533 78.9913 36.96C78.2979 35.8933 77.9513 34.7733 77.9513 33.6C77.9513 32 78.5913 30.48 79.8713 29.04C81.1513 27.6 82.7246 26.2933 84.5913 25.12C85.0713 24.8533 85.5513 24.5867 86.0313 24.32C86.5113 24.0533 86.9913 23.8133 87.4713 23.6C86.6179 23.8667 85.7646 24.1867 84.9113 24.56C84.0579 24.9333 83.2579 25.3333 82.5113 25.76H82.4313C82.3779 25.76 82.4313 25.7067 82.5912 25.6C82.7513 25.44 82.8846 25.3333 82.9913 25.28C85.1246 23.8933 87.3646 22.9333 89.7113 22.4C92.1113 21.8667 94.2179 21.6 96.0313 21.6C96.4579 21.6 96.8579 21.6267 97.2313 21.68C97.6046 21.68 97.9513 21.7067 98.2713 21.76C98.4313 21.8133 98.5379 21.8933 98.5913 22C98.6446 22.1067 98.5379 22.16 98.2713 22.16L99.6313 22.64C100.111 22.8533 100.538 23.5467 100.911 24.72C101.338 25.84 101.631 26.8533 101.791 27.76C101.845 27.7067 101.871 27.6533 101.871 27.6C101.978 27.3333 102.031 27.12 102.031 26.96C102.031 26.7467 102.058 26.5333 102.111 26.32C102.165 26.2133 102.298 26.4 102.511 26.88C102.725 27.3067 102.911 27.8133 103.071 28.4C103.285 28.9333 103.391 29.3867 103.391 29.76C103.338 30.72 102.991 31.76 102.351 32.88C101.711 34 101.018 34.88 100.271 35.52C99.5779 36.16 98.9913 36.2933 98.5113 35.92C99.0979 35.28 99.5513 34.5333 99.8713 33.68C98.6979 35.3333 97.2846 36.7733 95.6313 38C94.0313 39.1733 92.7513 39.76 91.7913 39.76C91.3113 39.76 91.0713 39.6267 91.0713 39.36C91.0713 39.2 91.1779 38.9867 91.3913 38.72C91.6579 38.4533 91.8446 38.2933 91.9513 38.24C92.4846 37.92 93.1513 37.3867 93.9513 36.64C94.7513 35.84 95.5513 34.9333 96.3513 33.92C97.1513 32.9067 97.8446 31.92 98.4313 30.96C99.0713 30 99.4979 29.2 99.7113 28.56C99.7113 27.6533 99.0713 27.2 97.7913 27.2C97.0446 27.2 96.1646 27.3333 95.1513 27.6C94.1913 27.8667 93.2046 28.1867 92.1913 28.56C90.2179 29.2533 88.4046 30.1867 86.7513 31.36C85.0979 32.5333 84.2713 33.8133 84.2713 35.2C84.2713 35.7333 84.4313 36.2933 84.7513 36.88C85.7646 38.4267 86.8046 40.0267 87.8713 41.68C88.9379 43.3333 89.8446 44.8533 90.5913 46.24C91.3379 47.5733 91.7113 48.6133 91.7113 49.36C91.7113 49.68 91.4713 50.1333 90.9913 50.72C90.5646 51.3067 90.0313 51.8933 89.3913 52.48C88.8046 53.12 88.2179 53.6533 87.6313 54.08C87.0979 54.56 86.6979 54.8 86.4313 54.8ZM102.335 56.8C101.162 55.7867 100.335 54.8267 99.855 53.92C99.4283 53.0667 99.215 52.24 99.215 51.44C99.215 51.12 99.2683 50.8267 99.375 50.56C99.4283 50.24 99.4817 49.92 99.535 49.6C99.8017 48.8 100.415 47.44 101.375 45.52C102.388 43.6 103.588 41.4133 104.975 38.96C106.415 36.5067 107.935 34.0267 109.535 31.52C111.135 28.96 112.655 26.6667 114.095 24.64C113.615 24.7467 113.108 24.8267 112.575 24.88C112.095 24.9333 111.615 24.96 111.135 24.96C109.802 24.96 108.602 24.88 107.535 24.72C106.522 24.5067 105.935 24.3733 105.775 24.32C105.242 24.2133 104.895 23.8667 104.735 23.28C104.628 22.64 104.602 22 104.655 21.36C104.495 21.3067 104.388 21.2267 104.335 21.12C104.282 21.0133 104.228 20.9333 104.175 20.88C104.175 20.7733 104.148 20.6667 104.095 20.56C104.095 20.4533 104.095 20.3467 104.095 20.24C104.095 19.7067 104.228 19.36 104.495 19.2C104.815 19.04 105.162 18.96 105.535 18.96C105.962 18.96 106.415 19.0133 106.895 19.12C107.428 19.1733 107.962 19.2 108.495 19.2C109.402 19.2 110.362 19.12 111.375 18.96C112.388 18.7467 112.975 18.48 113.135 18.16C113.295 17.84 113.455 17.68 113.615 17.68C113.722 17.68 113.882 17.9733 114.095 18.56C114.095 18.6133 114.095 18.6667 114.095 18.72C114.148 18.7733 114.175 18.8533 114.175 18.96C114.175 19.44 113.962 19.9467 113.535 20.48H116.975C117.882 19.3067 118.868 18 119.935 16.56C121.055 15.0667 122.148 13.6 123.215 12.16C124.335 10.6667 125.322 9.33333 126.175 8.16C127.082 6.98666 127.748 6.08 128.175 5.44C127.962 5.22666 127.855 4.96 127.855 4.64C127.855 4.21333 127.962 3.78666 128.175 3.36C128.442 2.93333 128.575 2.61333 128.575 2.4C128.575 2.24 128.522 2.05333 128.415 1.84C128.362 1.62666 128.335 1.44 128.335 1.28C128.335 0.853332 128.575 0.639998 129.055 0.639998C129.162 0.639998 129.428 0.693331 129.855 0.799996C130.548 1.01333 131.428 1.44 132.495 2.08C133.615 2.72 134.575 3.44 135.375 4.24C136.175 5.04 136.415 5.86666 136.095 6.72C135.722 7.14666 135.055 7.89333 134.095 8.96C133.188 10.0267 132.148 11.2533 130.975 12.64C129.802 13.9733 128.628 15.36 127.455 16.8C126.335 18.1867 125.322 19.4667 124.415 20.64C125.855 20.5333 127.322 20.4533 128.815 20.4C130.362 20.3467 131.722 20.2933 132.895 20.24C134.122 20.1867 134.922 20.16 135.295 20.16C136.255 20.16 136.735 20.2933 136.735 20.56C136.735 20.7733 136.522 20.9867 136.095 21.2C135.668 21.4133 135.215 21.5733 134.735 21.68C134.682 21.6267 133.935 21.68 132.495 21.84C131.108 22 129.722 22.16 128.335 22.32C127.695 22.3733 126.868 22.4533 125.855 22.56C124.895 22.6133 123.962 22.6667 123.055 22.72L122.735 23.04C123.908 22.9867 125.215 22.9333 126.655 22.88C128.148 22.7733 129.322 22.72 130.175 22.72C129.268 22.88 128.068 23.0133 126.575 23.12C125.082 23.1733 123.642 23.3067 122.255 23.52C121.188 24.6933 119.988 26.16 118.655 27.92C117.375 29.6267 116.015 31.4667 114.575 33.44C113.188 35.36 111.855 37.2533 110.575 39.12C109.295 40.9333 108.148 42.56 107.135 44C106.122 45.44 105.348 46.5067 104.815 47.2C105.562 46.9333 106.442 46.56 107.455 46.08C108.468 45.5467 109.482 44.9867 110.495 44.4C112.842 42.8533 115.348 41.1733 118.015 39.36C120.735 37.5467 123.108 35.9733 125.135 34.64C126.415 33.84 127.668 32.9867 128.895 32.08C130.175 31.12 131.402 30.1333 132.575 29.12C132.682 29.0133 132.735 29.0133 132.735 29.12C132.788 29.2267 132.762 29.3333 132.655 29.44L129.615 32.16C129.668 32.3733 129.695 32.5867 129.695 32.8C129.695 32.96 129.695 33.1467 129.695 33.36C129.695 33.84 129.615 34.2933 129.455 34.72C129.348 35.1467 129.108 35.4933 128.735 35.76C127.828 36.3467 126.442 37.3067 124.575 38.64C122.762 39.9733 120.708 41.52 118.415 43.28C116.122 44.9867 113.855 46.72 111.615 48.48C109.428 50.24 107.482 51.8667 105.775 53.36C104.068 54.8533 102.922 56 102.335 56.8ZM103.695 48.8L107.535 46.4L104.255 47.92L103.695 48.8ZM163.848 2.64C166.301 1.89333 168.861 1.33333 171.528 0.959999C174.194 0.533332 176.994 0.319998 179.928 0.319998C180.621 0.319998 181.314 0.346664 182.008 0.399997C182.754 0.399997 183.474 0.426663 184.168 0.479996C183.688 0.479996 183.181 0.479996 182.648 0.479996C182.168 0.426663 181.688 0.399997 181.208 0.399997C178.594 0.399997 176.061 0.53333 173.608 0.799996C171.208 1.01333 169.154 1.30666 167.448 1.68C166.914 1.84 166.328 2 165.688 2.16C165.101 2.26666 164.488 2.42666 163.848 2.64ZM197.528 53.92C195.661 53.6533 194.354 52.8533 193.608 51.52C192.914 50.1333 192.568 48.5333 192.568 46.72C192.568 45.0133 192.781 43.28 193.208 41.52C193.634 39.7067 194.114 38.08 194.648 36.64C195.181 35.1467 195.608 34.0533 195.928 33.36C195.981 33.3067 195.874 33.6 195.608 34.24C195.394 34.88 195.154 35.5733 194.887 36.32C194.674 37.0133 194.541 37.4667 194.488 37.68C194.701 37.3067 194.994 36.6667 195.368 35.76C195.794 34.8 196.248 33.8133 196.727 32.8C197.208 31.7867 197.581 31.0133 197.848 30.48C195.288 30.8533 192.541 31.2267 189.608 31.6C186.674 31.9733 183.608 32.3733 180.408 32.8C178.808 34.9333 177.368 36.88 176.088 38.64C174.808 40.4 173.874 41.8133 173.288 42.88C172.914 43.4667 172.568 44.1867 172.248 45.04C171.981 45.8933 171.821 46.3733 171.768 46.48C173.101 46.6933 174.061 47.04 174.648 47.52C175.234 47.9467 175.528 48.4267 175.528 48.96C175.528 49.76 174.941 50.5333 173.768 51.28C172.594 52.0267 170.994 52.5067 168.968 52.72C167.741 52.4533 166.888 51.8933 166.408 51.04C165.981 50.1333 165.768 49.2 165.768 48.24C165.768 47.2267 165.901 46.32 166.168 45.52C166.381 44.88 166.754 44.08 167.288 43.12C167.821 42.1067 168.434 40.9867 169.128 39.76C168.754 40.1333 168.434 40.4533 168.168 40.72C167.954 40.9333 167.821 41.04 167.768 41.04C167.714 41.04 168.008 40.6133 168.648 39.76C169.341 38.9067 170.088 38 170.888 37.04C171.208 36.5067 171.554 35.9733 171.928 35.44C172.301 34.8533 172.674 34.2933 173.048 33.76C169.314 34.1867 166.434 34.5867 164.408 34.96C162.381 35.28 160.834 35.5467 159.768 35.76C158.754 35.9733 157.821 36.1333 156.968 36.24C156.594 36.4533 156.248 36.56 155.928 36.56C155.554 36.56 155.261 36.3733 155.048 36C154.834 35.5733 154.728 35.0933 154.728 34.56C154.728 33.9733 154.808 33.36 154.967 32.72C155.181 32.0267 155.421 31.3867 155.688 30.8H155.848C155.848 29.8933 156.301 29.44 157.208 29.44C157.634 29.44 158.088 29.4933 158.568 29.6C159.101 29.7067 159.634 29.76 160.168 29.76C161.074 29.7067 162.034 29.6 163.048 29.44C164.061 29.2267 164.648 28.96 164.808 28.64C165.021 28.32 165.181 28.16 165.288 28.16C165.448 28.16 165.608 28.4267 165.768 28.96C165.821 29.0667 165.848 29.2 165.848 29.36C165.848 29.8933 165.661 30.3733 165.288 30.8C168.434 30.6933 171.794 30.5333 175.368 30.32C177.021 27.92 178.728 25.52 180.488 23.12C182.301 20.6667 184.034 18.32 185.688 16.08C187.341 13.84 188.808 11.84 190.087 10.08C191.421 8.32 192.434 6.96 193.128 6C192.061 6.85333 191.181 7.78667 190.488 8.8C189.848 9.76 189.261 10.2933 188.728 10.4C189.368 9.65333 190.221 8.66666 191.288 7.44C192.354 6.21333 193.021 5.09333 193.288 4.08C192.861 3.97333 192.381 3.92 191.848 3.92C191.314 3.92 190.754 3.92 190.168 3.92C187.661 3.92 184.621 4.13333 181.048 4.56C177.474 4.98666 174.088 5.54666 170.888 6.24C170.354 6.34666 169.448 6.64 168.168 7.12C166.888 7.54666 165.421 8.10666 163.768 8.8C162.168 9.49333 160.568 10.2933 158.968 11.2C157.368 12.1067 155.981 13.0933 154.808 14.16C153.688 15.1733 152.968 16.24 152.648 17.36C152.861 17.7867 152.968 18.1867 152.968 18.56C152.968 19.3067 152.594 19.68 151.848 19.68C151.208 19.68 150.514 19.3067 149.768 18.56C149.021 17.8133 148.647 16.7733 148.647 15.44C148.647 14.7467 148.754 14.08 148.967 13.44C149.234 12.5867 149.581 11.8133 150.008 11.12C150.488 10.3733 151.048 9.68 151.688 9.04C152.168 8.82667 153.101 8.32 154.488 7.52C155.928 6.72 157.448 5.92 159.048 5.12C160.701 4.26666 162.114 3.65333 163.288 3.28C165.634 2.48 168.248 1.84 171.128 1.36C174.061 0.826666 177.234 0.559999 180.648 0.559999C182.674 0.559999 184.834 0.666665 187.128 0.879995C189.421 1.09333 191.794 1.44 194.248 1.92C194.621 2.02666 194.808 2 194.808 1.84C194.808 1.73333 194.594 1.65333 194.168 1.6C192.834 1.33333 191.501 1.12 190.168 0.959999C188.834 0.746665 187.528 0.613332 186.248 0.559999C187.528 0.613332 188.781 0.719997 190.008 0.879995C191.288 0.986664 192.514 1.17333 193.688 1.44V1.2C193.688 0.826664 193.901 0.639998 194.328 0.639998C194.434 0.639998 194.701 0.693331 195.128 0.799996C195.768 1.01333 196.594 1.38666 197.608 1.92C198.621 2.45333 199.501 3.09333 200.248 3.84C201.048 4.53333 201.448 5.28 201.448 6.08C201.448 6.34667 201.421 6.56 201.368 6.72C200.781 7.36 199.821 8.48 198.488 10.08C197.208 11.6267 195.688 13.4933 193.928 15.68C192.168 17.8133 190.328 20.1067 188.408 22.56C186.488 24.96 184.621 27.36 182.808 29.76C185.154 29.5467 187.714 29.3333 190.488 29.12C193.314 28.8533 196.194 28.56 199.128 28.24C200.248 26.48 201.554 24.56 203.048 22.48C204.541 20.4 206.034 18.3733 207.528 16.4C209.021 14.3733 210.301 12.6667 211.368 11.28L208.408 14.56C208.728 14.1333 209.208 13.4133 209.848 12.4C210.488 11.3333 210.834 10.4533 210.888 9.76C210.941 8.74666 211.208 7.81333 211.688 6.96C212.221 6.10666 212.808 5.36 213.448 4.72C214.141 4.08 214.674 3.57333 215.048 3.2C215.581 2.77333 216.088 2.56 216.568 2.56C217.261 2.56 217.954 2.82666 218.648 3.36C219.394 3.89333 219.981 4.56 220.408 5.36C220.888 6.16 221.101 6.98666 221.048 7.84C221.048 7.89333 220.648 8.45333 219.848 9.52C219.048 10.5867 217.981 12.0267 216.648 13.84C215.314 15.6 213.821 17.6533 212.168 20C210.568 22.2933 208.941 24.6933 207.288 27.2C208.568 27.04 209.821 26.8533 211.048 26.64C212.274 26.3733 213.474 26.1333 214.648 25.92C214.914 25.8667 215.128 25.84 215.288 25.84C215.501 25.7867 215.661 25.76 215.768 25.76C216.194 25.76 216.408 25.84 216.408 26C216.408 26.32 215.928 26.6933 214.968 27.12C213.794 27.6 210.834 28.2667 206.088 29.12C205.394 30.1867 204.701 31.2533 204.008 32.32C203.368 33.3867 202.754 34.4533 202.168 35.52C200.621 38.2933 199.341 40.9067 198.328 43.36C197.314 45.8133 196.808 47.8667 196.808 49.52C196.808 51.0133 197.261 52.0533 198.168 52.64C198.488 52.8533 198.648 53.0933 198.648 53.36C198.648 53.84 198.274 54.0267 197.528 53.92ZM162.328 3.12H162.408L162.488 3.04H162.568H162.648C162.701 2.98666 162.728 2.96 162.728 2.96C162.781 2.96 162.808 2.96 162.808 2.96C162.861 2.96 162.888 2.96 162.888 2.96C162.941 2.90666 162.968 2.88 162.968 2.88C163.021 2.88 163.048 2.88 163.048 2.88C163.101 2.88 163.128 2.88 163.128 2.88C163.181 2.82667 163.208 2.8 163.208 2.8C163.261 2.8 163.261 2.8 163.208 2.8C163.261 2.8 163.314 2.8 163.368 2.8H163.208L163.128 2.88H163.048H162.968L162.888 2.96H162.808C162.808 2.96 162.781 2.96 162.728 2.96C162.728 2.96 162.701 2.98666 162.648 3.04C162.648 3.04 162.621 3.04 162.568 3.04C162.568 3.04 162.541 3.04 162.488 3.04C162.488 3.09333 162.461 3.12 162.408 3.12C162.408 3.12 162.381 3.12 162.328 3.12ZM161.208 3.52H161.288H161.368L161.447 3.44C161.501 3.44 161.528 3.44 161.528 3.44C161.581 3.38666 161.581 3.36 161.528 3.36C161.581 3.36 161.608 3.36 161.608 3.36H161.528V3.44C161.528 3.44 161.501 3.44 161.447 3.44C161.394 3.44 161.368 3.46666 161.368 3.52C161.368 3.52 161.341 3.52 161.288 3.52C161.341 3.52 161.341 3.52 161.288 3.52C161.234 3.52 161.208 3.52 161.208 3.52ZM152.248 8.56C153.421 7.44 154.781 6.48 156.328 5.68C157.928 4.88 159.554 4.16 161.208 3.52C158.114 4.74667 155.341 6.26667 152.888 8.08L152.248 8.56ZM152.008 8.72C152.008 8.72 151.981 8.74667 151.928 8.8C151.928 8.8 151.848 8.88 151.688 9.04C151.474 9.14667 151.368 9.2 151.368 9.2C151.368 9.2 151.421 9.17333 151.528 9.12C151.634 9.01333 151.794 8.88 152.008 8.72L151.688 8.88L152.248 8.56L152.008 8.72ZM219.236 52.64C218.489 52.64 217.689 52.48 216.836 52.16C216.036 51.8933 215.316 51.4667 214.676 50.88C214.036 50.2933 213.342 49.4133 212.596 48.24C211.902 47.0133 211.556 45.8133 211.556 44.64C211.556 44.16 211.636 43.7333 211.796 43.36C213.502 38.7733 216.276 34.5867 220.116 30.8C223.956 26.96 228.649 23.7333 234.196 21.12C234.942 21.12 235.716 21.4133 236.516 22C237.316 22.5333 237.982 23.2 238.516 24L239.956 24.48C239.902 23.8933 239.716 23.5467 239.396 23.44C239.076 23.28 238.916 23.0667 238.916 22.8C239.022 22.32 239.369 22.0533 239.956 22C240.542 21.8933 240.969 21.84 241.236 21.84C242.089 21.84 242.782 22.24 243.316 23.04C243.902 23.7867 244.222 24.6133 244.276 25.52C245.556 25.68 246.889 25.7867 248.276 25.84C249.662 25.8933 250.862 25.9467 251.876 26C252.942 26 253.529 26 253.636 26H253.876C254.036 26 254.116 26.1067 254.116 26.32C254.116 26.6933 253.902 27.0133 253.476 27.28C252.942 27.7067 251.689 28 249.716 28.16C247.796 28.2667 245.769 28.32 243.636 28.32C243.369 29.12 242.969 29.9733 242.436 30.88C241.902 31.7867 241.289 32.72 240.596 33.68C240.116 34.3733 239.396 35.3067 238.436 36.48C237.476 37.6 236.489 38.7467 235.476 39.92C234.462 41.0933 233.609 42.08 232.916 42.88C233.396 42.4533 234.169 41.7067 235.236 40.64C236.356 39.52 237.262 38.5333 237.956 37.68C238.222 37.36 238.622 36.8533 239.156 36.16C239.689 35.4133 240.196 34.72 240.676 34.08C241.209 33.3867 241.529 32.9333 241.636 32.72C240.942 34.16 240.062 35.5467 238.996 36.88C237.929 38.2133 236.862 39.4133 235.796 40.48C234.729 41.5467 233.822 42.4267 233.076 43.12C232.329 43.76 231.902 44.1333 231.796 44.24C229.556 46.5867 227.289 48.5867 224.996 50.24C222.756 51.84 220.836 52.64 219.236 52.64ZM216.676 49.92C216.942 49.92 217.262 49.84 217.636 49.68C218.222 49.36 218.969 48.8533 219.876 48.16C220.836 47.4667 221.822 46.7467 222.836 46C223.742 45.2533 224.756 44.3467 225.876 43.28C226.996 42.16 228.222 40.8533 229.556 39.36C230.729 38.0267 231.982 36.5867 233.316 35.04C234.649 33.44 235.956 31.7867 237.236 30.08L236.036 31.2C236.409 30.8267 236.862 30.32 237.396 29.68C237.982 28.9867 238.462 28.4533 238.836 28.08C237.182 27.9733 236.196 27.8933 235.876 27.84C235.822 27.9467 235.742 28 235.636 28C235.529 28 235.476 27.8133 235.476 27.44C235.476 27.3333 235.476 27.2 235.476 27.04C235.476 26.8267 235.502 26.6133 235.556 26.4C235.022 26.3467 234.436 26.4267 233.796 26.64C233.156 26.8533 232.436 27.3067 231.636 28C230.729 28.8533 229.556 29.92 228.116 31.2C226.676 32.48 225.182 33.9467 223.636 35.6C222.089 37.2 220.622 38.9333 219.236 40.8C217.902 42.6667 216.836 44.64 216.036 46.72C215.769 47.36 215.636 48 215.636 48.64C215.636 49.5467 216.036 49.8133 216.836 49.44C216.569 49.6 216.436 49.7067 216.436 49.76C216.436 49.8667 216.516 49.92 216.676 49.92ZM216.836 49.44C217.849 48.9067 219.449 47.7867 221.636 46.08C223.876 44.32 226.142 42.1867 228.436 39.68C229.182 38.88 230.036 37.9733 230.996 36.96C231.956 35.8933 232.889 34.88 233.796 33.92C234.702 32.96 235.396 32.2133 235.876 31.68C234.649 33.1733 233.502 34.5333 232.436 35.76C231.422 36.9333 230.436 38.0533 229.476 39.12C227.236 41.52 224.942 43.68 222.596 45.6C220.302 47.52 218.382 48.8 216.836 49.44ZM244.054 52C243.147 51.8933 242.427 51.3867 241.894 50.48C241.36 49.52 241.094 48.6133 241.094 47.76C241.094 47.0667 241.52 45.9467 242.374 44.4C243.227 42.8 244.294 41.0133 245.574 39.04C246.907 37.0133 248.267 35.0133 249.654 33.04C251.094 31.0667 252.374 29.3333 253.494 27.84C254.614 26.2933 255.387 25.2267 255.814 24.64C254.48 26.1333 253.387 27.3867 252.534 28.4C251.734 29.36 251.28 29.84 251.174 29.84C251.12 29.84 251.547 29.1467 252.454 27.76C253.414 26.3733 255.04 24 257.334 20.64C257.867 20.64 258.534 20.88 259.334 21.36C260.134 21.84 260.854 22.4 261.494 23.04C262.187 23.6267 262.534 24.1867 262.534 24.72C262.054 25.4667 261.334 26.4533 260.374 27.68C259.414 28.9067 258.32 30.2133 257.094 31.6C255.867 32.9867 254.694 34.3467 253.574 35.68C252.454 36.96 251.494 38.08 250.694 39.04C250.854 38.88 251.467 38.3733 252.534 37.52C253.6 36.6667 254.934 35.6 256.534 34.32C258.134 32.9867 259.814 31.6267 261.574 30.24C263.387 28.8 265.12 27.4667 266.774 26.24C268.427 24.96 269.84 23.92 271.014 23.12C272.187 22.32 272.934 21.92 273.254 21.92C273.52 21.92 273.894 22.1333 274.374 22.56C274.854 22.9867 275.334 23.52 275.814 24.16C276.347 24.7467 276.747 25.3333 277.014 25.92C277.28 26.4533 277.307 26.8267 277.094 27.04C276.774 27.36 276 28.16 274.774 29.44C273.6 30.72 272.214 32.24 270.614 34C269.067 35.76 267.574 37.52 266.134 39.28C264.747 40.9867 263.68 42.4533 262.934 43.68L268.534 40.16C268.96 39.8933 268.96 39.92 268.534 40.24C268.107 40.56 267.574 40.96 266.934 41.44C266.294 41.92 265.814 42.2933 265.494 42.56C265.334 42.72 265.147 42.9867 264.934 43.36C264.72 43.68 264.694 43.76 264.854 43.6C265.654 42.9067 266.667 42.1333 267.894 41.28C269.12 40.4267 270.4 39.5733 271.734 38.72C273.12 37.8133 274.347 37.0133 275.414 36.32C274.454 36.8 273.52 37.28 272.614 37.76C271.707 38.24 270.747 38.8 269.734 39.44L270.854 38.64C271.334 38.2667 272.027 37.8133 272.934 37.28C273.84 36.7467 274.747 36.24 275.654 35.76C276.614 35.28 277.334 34.96 277.814 34.8L275.494 36.32C276.08 36.0533 276.694 35.7867 277.334 35.52C277.974 35.2 278.64 34.88 279.334 34.56C279.76 34.4 280.054 34.32 280.214 34.32C280.694 34.32 280.72 34.6133 280.294 35.2C279.92 35.7867 279.36 36.2933 278.614 36.72C277.44 37.3067 276.054 38.2133 274.454 39.44C272.854 40.6667 271.174 42.0267 269.414 43.52C267.707 45.0133 266.054 46.5067 264.454 48C262.854 49.44 261.494 50.72 260.374 51.84C259.254 50.9333 258.667 50.0267 258.614 49.12C258.56 48.2133 258.534 47.4133 258.534 46.72V46.4C258.534 46.24 258.534 46.0533 258.534 45.84C258.587 45.5733 258.694 45.28 258.854 44.96C258.8 44.6933 258.587 44.5067 258.214 44.4C257.84 44.24 257.68 44.0533 257.734 43.84C257.947 42.8267 258.454 41.6533 259.254 40.32C260.054 38.9867 260.96 37.6 261.974 36.16C263.04 34.72 264.107 33.3333 265.174 32C266.24 30.6667 267.147 29.52 267.894 28.56C268.64 27.6 269.12 26.9333 269.334 26.56C268.747 27.0933 267.76 28 266.374 29.28C264.987 30.5067 263.387 31.9467 261.574 33.6C259.814 35.2 257.974 36.9067 256.054 38.72C254.134 40.5333 252.32 42.32 250.614 44.08C248.907 45.7867 247.467 47.3333 246.294 48.72C245.12 50.1067 244.374 51.2 244.054 52ZM264.477 80.72C264.211 80.72 263.784 80.5867 263.197 80.32C262.557 80.0533 261.997 79.68 261.517 79.2C260.984 78.7733 260.717 78.2933 260.717 77.76C260.717 77.44 260.797 77.12 260.957 76.8L261.117 76.48C260.317 75.6267 259.651 74.6933 259.117 73.68C258.584 72.72 258.317 71.8133 258.317 70.96C258.317 70.5867 258.344 70.32 258.397 70.16C259.837 68.0267 261.997 65.76 264.877 63.36C267.704 61.0133 270.957 58.7733 274.638 56.64C278.371 54.5067 282.211 52.6933 286.158 51.2C286.638 50.72 287.411 49.7867 288.478 48.4C289.544 47.0133 290.664 45.4667 291.838 43.76C293.064 42 294.131 40.3467 295.038 38.8C295.998 37.2533 296.584 36.1067 296.798 35.36C296.104 35.7333 295.144 36.5067 293.918 37.68C292.744 38.8 291.464 40.1067 290.078 41.6C288.691 43.04 287.304 44.5067 285.918 46C284.531 47.4933 283.251 48.8533 282.078 50.08C280.958 51.2533 280.051 52.08 279.358 52.56C279.038 52.56 278.504 52.1867 277.758 51.44C277.064 50.6933 276.344 49.84 275.598 48.88C274.904 47.92 274.371 47.2 273.998 46.72C274.158 44.96 274.744 43.0933 275.758 41.12C276.771 39.1467 278.024 37.1733 279.518 35.2C281.064 33.2267 282.638 31.36 284.238 29.6C285.891 27.7867 287.438 26.16 288.878 24.72C290.371 23.28 291.571 22.1333 292.478 21.28C294.024 21.3333 295.571 21.5733 297.118 22C298.664 22.3733 299.944 23.0133 300.958 23.92C302.024 24.7733 302.558 25.9467 302.558 27.44C302.558 27.92 302.478 28.4533 302.318 29.04C302.211 29.5733 301.998 30.16 301.678 30.8C302.158 31.0667 302.558 31.36 302.878 31.68C303.198 32 303.331 32.4 303.278 32.88C303.118 34.16 302.611 35.6 301.758 37.2C300.904 38.8 299.918 40.3733 298.798 41.92C297.678 43.4667 296.638 44.8267 295.678 46C294.771 47.12 294.184 47.8667 293.918 48.24C294.664 47.92 295.251 47.7333 295.678 47.68C296.158 47.5733 296.771 47.4667 297.518 47.36C297.731 47.3067 297.918 47.28 298.078 47.28C298.238 47.28 298.371 47.28 298.478 47.28C298.904 47.28 299.118 47.3867 299.118 47.6C299.118 47.8133 298.958 48.0533 298.638 48.32C298.318 48.5867 298.024 48.7733 297.758 48.88C297.544 48.9867 297.064 49.2267 296.318 49.6C295.571 49.9733 294.744 50.4 293.838 50.88C292.984 51.3067 292.211 51.7067 291.518 52.08C290.451 53.52 289.118 55.2267 287.518 57.2C285.918 59.1733 284.184 61.2267 282.318 63.36C280.451 65.5467 278.504 67.6533 276.478 69.68C274.504 71.76 272.557 73.6 270.637 75.2C271.011 75.2 271.304 75.28 271.517 75.44C271.784 75.5467 271.651 75.8667 271.117 76.4C270.584 76.9867 269.891 77.6 269.037 78.24C268.131 78.9333 267.251 79.52 266.397 80C265.544 80.48 264.904 80.72 264.477 80.72ZM280.398 47.12C280.984 46.3733 281.811 45.44 282.878 44.32C283.944 43.2 284.824 42.32 285.518 41.68L282.238 46.16C282.184 46.2133 282.158 46.2667 282.158 46.32C282.158 46.3733 282.264 46.3467 282.478 46.24C282.691 46.08 282.851 45.92 282.958 45.76C283.651 44.8533 284.478 43.76 285.438 42.48C286.451 41.2 287.518 39.9733 288.638 38.8C288.158 39.2267 287.678 39.6533 287.198 40.08C286.718 40.4533 286.264 40.8533 285.838 41.28C287.598 39.1467 289.384 37.2 291.198 35.44C293.064 33.68 294.344 32.48 295.038 31.84C295.251 31.68 295.518 31.4933 295.838 31.28C296.158 31.0133 296.558 30.8533 297.038 30.8C297.144 30.7467 297.251 30.7733 297.358 30.88C297.518 30.9333 297.571 30.9867 297.518 31.04C297.678 30.9333 297.811 30.8533 297.918 30.8C298.078 30.7467 298.184 30.72 298.238 30.72C298.664 30.6133 299.118 30.48 299.598 30.32C300.131 30.16 300.398 30.08 300.398 30.08C300.558 29.4933 300.504 28.8533 300.238 28.16C299.971 27.4667 299.624 26.8267 299.198 26.24C298.771 25.6 298.424 25.1733 298.158 24.96C297.091 25.92 295.838 27.12 294.398 28.56C292.958 30 291.438 31.5733 289.838 33.28C288.291 34.9867 286.824 36.72 285.438 38.48C284.104 40.1867 282.958 41.7867 281.998 43.28C281.091 44.7733 280.558 46.0533 280.398 47.12ZM291.758 35.68C292.824 34.6667 293.864 33.76 294.878 32.96C295.891 32.16 296.691 31.5467 297.278 31.12C296.691 31.2267 295.838 31.7867 294.718 32.8C293.598 33.8133 292.611 34.7733 291.758 35.68ZM264.397 77.2C265.624 75.9733 267.064 74.4533 268.717 72.64C270.371 70.88 272.051 69.0133 273.758 67.04C275.518 65.0667 277.171 63.1733 278.717 61.36C280.264 59.6 281.598 58.1067 282.718 56.88C281.971 57.04 280.824 57.6 279.278 58.56C277.784 59.52 276.131 60.72 274.318 62.16C272.557 63.6 270.877 65.1467 269.277 66.8C267.624 68.4533 266.291 70.0267 265.277 71.52C264.211 73.0667 263.677 74.4 263.677 75.52C263.677 76.2133 263.917 76.7733 264.397 77.2ZM322.284 19.2C321.591 18.88 320.871 18.2667 320.124 17.36C319.378 16.4533 319.004 15.68 319.004 15.04C319.004 14.5067 319.244 14.24 319.724 14.24C319.991 14.24 320.311 14.2933 320.684 14.4C321.058 14.4533 321.431 14.48 321.804 14.48C322.284 14.48 322.818 14.32 323.404 14C323.991 13.6267 324.578 13.44 325.164 13.44C325.911 13.44 326.498 13.9467 326.924 14.96C327.084 15.2267 326.951 15.6 326.524 16.08C326.098 16.56 325.591 17.0133 325.004 17.44C324.471 17.8667 324.018 18.1867 323.644 18.4C323.911 18.4 324.338 18.2133 324.924 17.84C325.511 17.4133 325.991 17.0133 326.364 16.64C325.671 17.4933 324.871 18.16 323.964 18.64C323.058 19.0667 322.498 19.2533 322.284 19.2ZM304.924 51.76C303.964 50.9067 303.298 50.2133 302.924 49.68C302.604 49.0933 302.444 48.56 302.444 48.08C302.444 47.7067 302.498 47.3333 302.604 46.96C302.764 46.5867 302.898 46.1867 303.004 45.76C303.591 43.7867 304.551 41.6533 305.884 39.36C307.218 37.0667 308.658 34.8267 310.204 32.64C311.804 30.4 313.218 28.4267 314.444 26.72C314.338 26.6133 314.284 26.2933 314.284 25.76C314.284 25.0133 314.418 24.1867 314.684 23.28C315.004 22.32 315.431 21.9467 315.964 22.16C316.604 22.32 317.351 22.64 318.204 23.12C319.111 23.6 319.911 24.16 320.604 24.8C321.298 25.44 321.644 26.1333 321.644 26.88C321.644 27.04 321.591 27.28 321.484 27.6H321.404C320.018 29.0933 318.658 30.7467 317.324 32.56C315.991 34.3733 314.818 36.08 313.804 37.68C312.844 39.2267 312.178 40.4 311.804 41.2C312.124 41.04 312.471 40.8267 312.844 40.56C313.218 40.2933 313.618 39.9733 314.044 39.6C313.778 39.76 313.538 39.8667 313.324 39.92C313.164 39.9733 313.138 39.9733 313.244 39.92C314.631 38.8 316.231 37.6533 318.044 36.48C319.911 35.3067 321.804 34.24 323.724 33.28C325.644 32.2667 327.458 31.44 329.164 30.8H329.324C329.431 30.8 329.351 30.88 329.084 31.04C328.871 31.1467 328.578 31.28 328.204 31.44C327.831 31.6 327.324 31.8667 326.684 32.24C326.044 32.56 325.324 32.96 324.524 33.44C325.271 33.12 326.044 32.7467 326.844 32.32C327.644 31.8933 328.471 31.5467 329.324 31.28C329.591 31.1733 329.831 31.0933 330.044 31.04C330.311 30.9867 330.498 30.96 330.604 30.96C330.978 30.96 331.164 31.0933 331.164 31.36C331.164 31.7333 330.791 32.2667 330.044 32.96C329.298 33.6533 328.338 34.32 327.164 34.96C326.471 35.3333 325.378 36.0267 323.884 37.04C322.444 38.0533 320.791 39.2533 318.924 40.64C317.058 41.9733 315.164 43.36 313.244 44.8C311.378 46.24 309.698 47.5733 308.204 48.8C306.711 50.0267 305.618 51.0133 304.924 51.76ZM314.044 39.6C314.311 39.4933 314.578 39.36 314.844 39.2C315.164 38.9867 315.378 38.8533 315.484 38.8C316.498 38.1067 317.831 37.3067 319.484 36.4C321.191 35.44 322.871 34.4533 324.524 33.44C321.858 34.72 319.751 35.84 318.204 36.8C316.658 37.76 315.271 38.6933 314.044 39.6ZM341.034 58.32C339.754 58.32 338.554 57.5467 337.434 56C336.421 54.6133 335.541 52.8 334.794 50.56C334.048 48.32 333.674 46.0533 333.674 43.76C333.674 43.3333 333.674 42.9333 333.674 42.56C333.728 42.1333 333.781 41.7333 333.834 41.36C333.994 40.4 334.501 39.7333 335.354 39.36C336.261 38.9333 336.901 38.8 337.274 38.96C337.381 38.96 337.514 38.9867 337.674 39.04C337.834 39.0933 338.021 39.1733 338.234 39.28C339.461 38.6933 340.928 37.6 342.634 36C344.341 34.4 345.781 32.5333 346.954 30.4C347.648 29.1733 347.994 28.3467 347.994 27.92C347.994 27.44 347.648 27.4133 346.954 27.84C346.314 28.2667 345.594 28.8267 344.794 29.52C344.048 30.16 343.461 30.6667 343.034 31.04C339.781 33.9733 336.634 36.6667 333.594 39.12C330.554 41.5733 327.968 44.24 325.834 47.12C325.088 48.1333 324.448 49.04 323.914 49.84C323.381 50.5867 323.061 51.3067 322.954 52C321.674 51.0933 320.821 50.24 320.394 49.44C319.968 48.64 319.754 47.8667 319.754 47.12C319.754 46.6933 319.808 46.2933 319.914 45.92C319.968 45.5467 320.048 45.1733 320.154 44.8C320.474 43.68 321.301 42 322.634 39.76C324.021 37.52 325.701 34.96 327.674 32.08C329.648 29.2 331.754 26.2133 333.994 23.12C336.234 20.0267 338.394 17.0667 340.474 14.24C342.554 11.4133 344.394 8.93333 345.994 6.8C347.594 4.66667 348.714 3.14666 349.354 2.24C349.088 2.4 348.874 2.53333 348.714 2.64C348.608 2.69333 348.368 2.93333 347.994 3.36C347.674 3.73333 347.061 4.48 346.154 5.6C344.821 7.30666 344.101 8.16 343.994 8.16C343.941 8.16 344.101 7.86666 344.474 7.28C344.848 6.69333 345.328 5.97333 345.914 5.12C346.501 4.21333 347.088 3.36 347.674 2.56C348.261 1.76 348.714 1.17333 349.034 0.799996C349.354 0.479997 349.594 0.319998 349.754 0.319998C349.861 0.319998 349.994 0.37333 350.154 0.479996C350.368 0.533332 350.661 0.613332 351.034 0.719997C351.461 0.826663 352.048 1.2 352.794 1.84C353.594 2.48 354.261 3.2 354.794 4C355.381 4.74666 355.568 5.41333 355.354 6C354.714 6.64 353.701 7.76 352.314 9.36C350.928 10.96 349.274 12.8533 347.354 15.04C345.488 17.2267 343.514 19.5733 341.434 22.08C339.354 24.5333 337.301 26.9867 335.274 29.44C333.248 31.84 331.381 34.08 329.674 36.16C327.968 38.1867 326.581 39.8933 325.514 41.28C324.448 42.6667 323.834 43.52 323.674 43.84C324.208 43.5733 325.141 42.8 326.474 41.52C327.861 40.24 329.514 38.6933 331.434 36.88C333.354 35.0133 335.408 33.0933 337.594 31.12C339.781 29.0933 341.968 27.2267 344.154 25.52C346.394 23.76 348.501 22.3733 350.474 21.36C351.221 21.36 352.048 21.68 352.954 22.32C353.914 22.96 354.474 23.6 354.634 24.24C355.541 24.6667 355.994 25.36 355.994 26.32C355.994 27.28 355.568 28.32 354.714 29.44C353.914 30.56 353.114 31.4933 352.314 32.24C351.941 32.6133 351.541 32.96 351.114 33.28C350.741 33.6 350.341 33.92 349.914 34.24C350.821 33.3333 351.674 32.32 352.474 31.2C353.328 30.08 354.154 28.8267 354.954 27.44C355.061 27.1733 355.088 26.88 355.034 26.56C355.034 26.1867 354.928 26.24 354.714 26.72C353.861 28.64 352.768 30.4 351.434 32C350.101 33.6 348.688 35.04 347.194 36.32C347.621 36.0533 348.048 35.76 348.474 35.44C348.954 35.0667 349.408 34.6933 349.834 34.32C348.661 35.6533 347.461 36.7733 346.234 37.68C345.008 38.5333 343.861 39.2267 342.794 39.76C342.688 39.8133 342.581 39.8667 342.474 39.92C342.368 39.9733 342.288 40 342.234 40L343.274 39.28C344.608 38.3733 345.914 37.3867 347.194 36.32C345.594 37.3867 344.154 38.24 342.874 38.88C341.594 39.52 340.581 39.9733 339.834 40.24C340.421 40.6133 340.661 41.04 340.554 41.52C340.501 41.8933 340.448 42.7467 340.394 44.08C340.341 45.36 340.314 46.72 340.314 48.16C340.314 48.96 340.314 49.7333 340.314 50.48C340.314 51.1733 340.341 51.8133 340.394 52.4C340.501 54.5867 341.114 55.68 342.234 55.68C342.768 55.68 343.541 55.3067 344.554 54.56C344.874 54.2933 345.141 54.16 345.354 54.16C345.461 54.16 345.514 54.24 345.514 54.4C345.514 55.2533 345.034 56.1067 344.074 56.96C343.114 57.8667 342.101 58.32 341.034 58.32Z" fill="#6667AB"/>
</svg>
